<svg width="198" height="195" viewBox="0 0 198 195" fill="none" xmlns="http://www.w3.org/2000/svg">
<path d="M188.075 33.0206V154.913H14.1807V33.0206C14.1794 31.4057 14.4967 29.8063 15.1144 28.314C15.7321 26.8218 16.6381 25.4659 17.7806 24.3239C18.9231 23.182 20.2796 22.2764 21.7726 21.659C23.2656 21.0416 24.8657 20.7244 26.4814 20.7257H175.774C179.037 20.7257 182.165 22.0211 184.472 24.3268C186.779 26.6326 188.075 29.7598 188.075 33.0206Z" stroke="#EDEDED" stroke-width="1.64" stroke-linecap="round" stroke-linejoin="round"/>
<path d="M188.075 33.0206V33.5686H14.1807V33.0206C14.1794 31.4057 14.4967 29.8063 15.1144 28.314C15.7321 26.8218 16.6381 25.4659 17.7806 24.3239C18.9231 23.182 20.2796 22.2764 21.7726 21.659C23.2656 21.0416 24.8657 20.7244 26.4814 20.7257H175.774C179.037 20.7257 182.165 22.0211 184.472 24.3268C186.779 26.6326 188.075 29.7598 188.075 33.0206Z" stroke="#DDDDDD" stroke-width="1.64" stroke-linecap="round" stroke-linejoin="round"/>
<path d="M164.54 27.1522C164.54 27.5955 164.409 28.029 164.162 28.3976C163.916 28.7663 163.566 29.0536 163.156 29.2233C162.746 29.393 162.295 29.4374 161.86 29.3509C161.425 29.2644 161.025 29.0509 160.712 28.7373C160.398 28.4238 160.184 28.0244 160.098 27.5895C160.011 27.1546 160.056 26.7039 160.225 26.2943C160.395 25.8846 160.683 25.5345 161.051 25.2882C161.42 25.0419 161.854 24.9104 162.297 24.9104C162.892 24.9104 163.463 25.1466 163.883 25.567C164.304 25.9874 164.54 26.5576 164.54 27.1522Z" fill="#EDEDED"/>
<path d="M171.837 27.1522C171.837 27.5955 171.705 28.029 171.459 28.3976C171.213 28.7663 170.862 29.0536 170.452 29.2233C170.043 29.393 169.592 29.4374 169.157 29.3509C168.722 29.2644 168.322 29.0509 168.008 28.7373C167.695 28.4238 167.481 28.0244 167.394 27.5895C167.308 27.1546 167.352 26.7039 167.522 26.2943C167.692 25.8846 167.979 25.5345 168.348 25.2882C168.717 25.0419 169.151 24.9104 169.594 24.9104C170.189 24.9104 170.759 25.1466 171.18 25.567C171.601 25.9874 171.837 26.5576 171.837 27.1522Z" fill="#DDDDDD"/>
<path d="M179.134 27.1522C179.134 27.5955 179.002 28.029 178.756 28.3976C178.509 28.7663 178.159 29.0536 177.749 29.2233C177.339 29.393 176.888 29.4374 176.453 29.3509C176.018 29.2644 175.619 29.0509 175.305 28.7373C174.991 28.4238 174.778 28.0244 174.691 27.5895C174.605 27.1546 174.649 26.7039 174.819 26.2943C174.988 25.8846 175.276 25.5345 175.645 25.2882C176.014 25.0419 176.447 24.9104 176.891 24.9104C177.486 24.9104 178.056 25.1466 178.477 25.567C178.897 25.9874 179.134 26.5576 179.134 27.1522Z" fill="#EDEDED"/>
<path d="M17.8889 86.0161C17.4403 80.9149 39.9584 71.2603 43.6565 78.7129L36.3399 86.0161C36.3399 86.0161 21.1186 92.0241 17.8889 86.0161Z" fill="#93BEE5"/>
<path d="M28.9236 49.5699C25.6341 39.4072 25.4049 38.1618 27.5879 37.3746C29.7709 36.5875 35.3331 48.165 35.9611 49.5699C38.1604 54.0168 39.8555 58.6954 41.015 63.5187C42.0118 68.0222 43.2578 78.4041 43.4671 80.9049C44.3244 91.4562 26.92 94.6544 26.1624 86.4545C25.4049 78.2546 25.3251 75.5944 25.3251 75.5944C25.3251 75.5944 16.3538 76.4512 15.0878 69.7359C14.2974 64.4845 13.9938 59.1713 14.1807 53.8641C14.1807 53.8641 0.524357 51.6024 1.0128 48.0056C1.50124 44.4088 28.2159 51.6821 28.2159 51.6821L28.9236 49.5699Z" fill="#B25E47"/>
<path d="M14.1807 53.8641C14.1807 53.8641 0.524357 51.6024 1.0128 48.0056C1.50124 44.4088 28.2159 51.6821 28.2159 51.6821L28.9236 49.5699C25.6341 39.4072 25.4049 38.1618 27.5879 37.3746C29.7709 36.5875 35.3331 48.165 35.9611 49.5699" stroke="#934735" stroke-width="0.61" stroke-linecap="round" stroke-linejoin="round"/>
<path d="M28.196 51.6821C27.0397 56.1724 27.2374 60.904 28.7641 65.2822" stroke="#934735" stroke-width="0.61" stroke-linecap="round" stroke-linejoin="round"/>
<path d="M21.7964 43.9007C23.9396 45.0166 25.6242 45.2557 26.2621 42.2069C26.9001 39.1581 23.9396 39.0585 22.9428 39.2179C21.4176 39.467 20.8793 43.4125 21.7964 43.9007Z" fill="#683F1D"/>
<path d="M22.225 43.1036C21.7465 44.7376 21.3976 46.7801 21.4076 46.7204C21.7665 46.8997 23.8199 47.6071 24.1389 46.8997C24.4599 45.6531 24.6865 44.3842 24.8167 43.1036H22.225Z" fill="#683F1D"/>
<path d="M20.2912 47.7366C19.1648 52.7183 13.3833 80.1776 13.1939 81.0743C13.0045 81.971 13.2537 86.1158 13.6125 86.2752C13.9714 86.4346 15.965 83.4655 16.7126 81.961C17.4602 80.4565 23.9395 50.357 24.3482 48.9522C25.345 45.5347 21.0288 44.4686 20.2912 47.7366Z" fill="#683F1D"/>
<path d="M15.1975 63.3095C12.3965 63.9571 11.599 66.6273 13.6724 68.4008C15.8953 70.3038 21.3678 69.3971 21.6469 67.0159C21.926 64.6346 17.5301 62.7714 15.1975 63.3095Z" fill="#B25E47" stroke="#934735" stroke-width="0.61" stroke-linecap="round" stroke-linejoin="round"/>
<path d="M14.9682 58.9256C12.0974 58.5071 11.3896 61.3467 13.4431 63.5884C15.4965 65.8302 22.2649 66.2885 22.6437 63.6681C23.0224 61.0478 16.7126 59.1846 14.9682 58.9256Z" fill="#B25E47" stroke="#934735" stroke-width="0.61" stroke-linecap="round" stroke-linejoin="round"/>
<path d="M12.4064 54.0236C16.0149 53.1667 23.8299 58.4672 23.5209 60.1112C23.1421 62.1736 19.4639 62.4925 14.2306 60.2706C9.32625 58.1982 10.6321 54.442 12.4064 54.0236Z" fill="#B25E47" stroke="#934735" stroke-width="0.61" stroke-linecap="round" stroke-linejoin="round"/>
<mask id="mask0_1_3" style="mask-type:luminance" maskUnits="userSpaceOnUse" x="14" y="20" width="175" height="135">
<path d="M188.075 33.0206V154.913H14.1807V33.0206C14.1794 31.4057 14.4967 29.8063 15.1144 28.314C15.7321 26.8218 16.6381 25.4659 17.7806 24.3239C18.9231 23.182 20.2796 22.2764 21.7726 21.659C23.2656 21.0416 24.8657 20.7244 26.4814 20.7257H175.774C179.037 20.7257 182.165 22.0211 184.472 24.3268C186.779 26.6326 188.075 29.7598 188.075 33.0206Z" fill="white"/>
</mask>
<g mask="url(#mask0_1_3)">
<path d="M186.211 93.8076C175.007 93.2596 165.727 103.372 162.856 114.98C162.766 115.299 162.696 115.657 162.626 116.036C162.318 117.823 162.105 119.626 161.988 121.436C160.792 136.76 161.919 167.268 161.988 167.945C162.038 168.195 154.014 167.945 142.999 167.427C138.932 167.238 134.436 167.029 129.771 166.79C106.007 165.624 77.7875 164.05 77.7875 164.05L76.0829 145.01C76.0829 145.01 72.5243 150.988 60.3731 162.755C48.222 174.521 28.7741 167.945 30.8674 153.19C32.1732 143.924 37.6557 137.139 44.2845 125.8C46.2782 122.283 48.4911 118.338 50.6741 113.744C53.5749 107.637 56.4058 101.788 59.1072 96.5375C60.2934 94.2161 61.4597 92.0141 62.5861 89.9318C66.8524 82.0706 70.6802 76.1125 73.7604 73.3327C83.0208 64.9634 102.847 69.7857 108.131 71.4795C116.015 74.041 124.196 75.5813 132.473 76.0627C144.195 76.8797 161.988 81.9311 171.418 85.2091C176.869 87.0338 181.886 89.9569 186.161 93.7976L186.211 93.8076Z" fill="#EF5A6F"/>
<path d="M194.096 111.204C183.839 100.911 168.258 96.418 152.628 110.347C134.447 126.537 120.491 129.347 100.036 105.704C85.2437 88.6066 80.1001 84.2427 62.626 89.9318C66.8923 82.0706 70.7201 76.1125 73.8003 73.3327C83.0607 64.9634 102.887 69.7857 108.17 71.4795C116.055 74.041 124.236 75.5813 132.513 76.0627C144.235 76.8797 162.028 81.9311 171.458 85.2091C176.909 87.0338 181.926 89.9569 186.201 93.7976C190.238 97.0257 192.631 103.492 194.096 111.204Z" fill="#EF5A6F"/>
<path d="M58.8281 140.626C52.3189 147.71 46.4178 132.336 44.3045 125.8C46.2981 122.283 48.5111 118.338 50.6941 113.744C53.5948 107.637 56.4258 101.788 59.1271 96.5375C63.9418 103.901 57.4326 110.646 56.974 113.984C55.8377 122.891 68.2181 130.453 58.8281 140.626Z" fill="#EF5A6F"/>
<path d="M17.8889 86.0161C27.9767 88.1383 43.6566 78.7129 43.6566 78.7129C43.6566 78.7129 52.299 117.261 54.5518 125.81C56.8046 134.359 71.2384 167.846 43.1183 169.221C25.0759 170.098 23.8598 135.813 22.8032 124.525C21.7466 113.236 17.8889 86.0161 17.8889 86.0161Z" fill="#EF5A6F"/>
<path d="M24.5775 90.42C32.3427 90.968 40.9951 85.7471 40.9951 85.7471" stroke="#EF5A6F" stroke-width="0.61" stroke-linecap="round" stroke-linejoin="round"/>
<path d="M43.6566 78.7129C43.6566 78.7129 52.2989 117.261 54.5517 125.81C55.7878 130.473 60.6423 142.559 60.2336 152.801" stroke="#EF5A6F" stroke-width="0.61" stroke-linecap="round" stroke-linejoin="round"/>
<path d="M100.036 77.7764C105.021 87.1121 118.418 96.0792 134.526 83.6947C134.526 83.6947 136.261 78.5535 136.081 78.5535C135.902 78.5535 102.319 74.4884 102.319 74.4884L100.036 77.7764Z" fill="white"/>
<path d="M113.294 66.1989C109.147 65.2623 103.127 66.3085 98.9798 72.6751C94.8331 79.0417 94.3048 84.3024 94.544 84.2426C94.7833 84.1829 101.033 80.2573 103.894 80.5064C106.98 81.0305 110.03 81.7493 113.025 82.6585L113.294 66.1989Z" fill="#F9F9F9"/>
<path d="M131.994 68.062C131.994 68.062 141.165 68.1218 142.401 74.5482C143.637 80.9746 140.238 88.6764 136.081 92.2433C131.925 95.8102 134.217 87.1022 119.315 83.0171L131.994 68.062Z" fill="white"/>
<path d="M136.47 75.5745C136.47 75.5745 131.376 83.316 120.023 83.4954C108.669 83.6747 106.486 76.8996 106.486 76.8996C107.712 73.8309 109.197 67.2849 110.144 62.6917C110.742 59.7924 111.141 57.71 111.141 57.71C111.141 57.71 113.015 39.5367 132.513 40.6327L132.842 43.6217L136.47 75.5745Z" fill="#BF6F5A"/>
<path d="M110.144 62.8312C110.742 59.9319 111.141 57.8495 111.141 57.8495L122.236 52.6486C122.236 52.6486 123.99 65.3121 110.144 62.8312Z" fill="#914839"/>
<path d="M76.1128 145.01C74.5478 127.075 74.5479 112.609 74.5479 112.609" stroke="#EF5A6F" stroke-width="0.61" stroke-linecap="round" stroke-linejoin="round"/>
</g>
<path d="M150.186 188.54C149.235 188.192 148.329 187.734 147.485 187.175C141.803 183.429 141.314 176.125 143.039 167.427C144.375 160.762 147.026 153.279 149.588 145.946C152.519 137.587 155.39 129.427 156.197 122.901C156.317 121.984 156.386 121.107 156.416 120.27C156.564 115.258 157.482 110.298 159.138 105.564C163.823 92.3828 174.09 84.0832 186.201 93.7976C190.188 97.0158 192.621 103.482 194.086 111.194C194.614 113.944 195.023 116.853 195.362 119.822C196.478 129.915 196.628 140.745 197.126 148.846C199.568 188.002 190.188 203.625 150.186 188.54Z" fill="#EF5A6F"/>
<path d="M194.096 111.204C185.274 102.346 172.485 97.783 159.138 105.564C163.823 92.3828 174.09 84.0832 186.201 93.7976C190.238 97.0257 192.631 103.492 194.096 111.204Z" fill="#EF5A6F"/>
<path d="M162.028 167.945C162.078 168.195 154.054 167.945 143.039 167.427C138.972 167.238 134.476 167.029 129.811 166.79C121.837 163.193 116.853 157.992 121.109 150.539C132.692 130.284 154.004 158.351 155.081 138.264C155.828 124.505 159.167 121.526 161.988 121.436C160.792 136.76 161.919 167.248 162.028 167.945Z" fill="#EF5A6F"/>
<path d="M164.75 109.002C163.166 112.971 162.233 117.17 161.988 121.436C160.922 136.77 161.919 167.268 161.988 167.945" stroke="#EF5A6F" stroke-width="0.61" stroke-linecap="round" stroke-linejoin="round"/>
<path d="M150.186 188.54C149.235 188.192 148.329 187.734 147.485 187.175C156.646 189.168 170.342 190.911 176.392 185.76C185.912 177.66 179.861 167.278 185.125 161.559C190.388 155.84 197.973 153.997 195.372 119.862C196.488 129.955 196.638 140.785 197.136 148.885C199.568 188.002 190.188 203.625 150.186 188.54Z" fill="#EF5A6F"/>
<path d="M127.259 119.842C128.715 113.296 120.501 113.595 120.501 113.595C121.229 107.557 113.234 105.893 111.39 111.772C104.901 109.779 102.847 111.772 101.9 115.189L127.259 119.842Z" fill="#DDDDDD"/>
<path d="M116.185 114.223C117.258 114.223 118.129 113.353 118.129 112.28C118.129 111.207 117.258 110.337 116.185 110.337C115.111 110.337 114.241 111.207 114.241 112.28C114.241 113.353 115.111 114.223 116.185 114.223Z" fill="#F9F9F9" stroke="#DDDDDD" stroke-width="0.82" stroke-linecap="round" stroke-linejoin="round"/>
<path d="M89.5599 110.347L77.4386 176.046L125.575 185.76L138.503 119.972L89.5599 110.347Z" fill="#F9F9F9" stroke="#DDDDDD" stroke-width="0.82" stroke-linecap="round" stroke-linejoin="round"/>
<path d="M104.393 153.877C101.93 160.274 101.791 166.989 102.917 169.241C102.917 169.241 107.513 170.088 112.098 157.643L104.393 153.877Z" fill="#93BEE5"/>
<path d="M110.662 141.542C99.6477 137.766 94.3845 135.475 92.4008 134.937C90.4171 134.399 83.2501 133.801 82.1037 134.937C81.5979 135.481 81.2521 136.153 81.1044 136.881C80.9566 137.609 81.0127 138.363 81.2664 139.061C81.6452 140.586 80.4291 141.692 80.2696 143.236C80.1101 144.78 81.9542 145.229 81.5654 146.763C81.1767 148.298 79.9705 149.961 80.8079 151.645C81.6452 153.329 79.9705 155.073 81.5654 157.135C83.1603 159.198 99.3985 160.184 102.957 159.427L109.935 162.545C109.935 162.545 122.245 149.862 110.662 141.542Z" fill="#B25E47"/>
<path d="M92.3609 134.907C90.3673 134.379 83.2101 133.771 82.0638 134.907C81.558 135.451 81.2122 136.124 81.0645 136.851C80.9167 137.579 80.9728 138.334 81.2265 139.032C81.6053 140.556 80.3891 141.662 80.2297 143.206C80.0702 144.751 81.9143 145.199 81.5255 146.733C81.1368 148.268 79.9306 149.932 80.7679 151.615C81.6053 153.299 79.9306 155.043 81.5255 157.105" stroke="#934735" stroke-width="0.61" stroke-linecap="round" stroke-linejoin="round"/>
<path d="M176.452 185.76C173.591 190.931 166.414 193.432 152.808 189.317C149.13 188.211 145.581 187.055 142.192 185.89C136.57 183.967 131.386 181.994 126.741 180.111C118.64 176.89 110.708 173.259 102.977 169.231C105.015 166.966 106.659 164.376 107.841 161.569C108.584 159.903 109.194 158.18 109.666 156.418C110.936 151.543 111.275 146.473 110.662 141.473C112.517 142.031 114.51 142.595 116.643 143.166C121.717 144.551 127.399 145.996 133.161 147.51C150.425 152.054 168.378 157.265 172.754 163.741C173.153 164.329 173.532 164.937 173.89 165.554C174.03 165.793 174.179 166.042 174.309 166.292C174.349 166.356 174.386 166.422 174.419 166.491C174.578 166.78 174.738 167.089 174.887 167.388C175.16 167.912 175.409 168.44 175.635 168.972C178.137 174.9 178.865 181.316 176.452 185.76Z" fill="#EF5A6F"/>
<path d="M110.662 141.542C130.429 147.52 166.275 154.286 172.714 163.811C173.827 165.466 174.791 167.216 175.595 169.041" stroke="#EF5A6F" stroke-width="0.61" stroke-linecap="round" stroke-linejoin="round"/>
<path d="M116.564 143.206C117.79 155.591 111.39 167.477 111.39 167.477" stroke="#EF5A6F" stroke-width="0.61" stroke-linecap="round" stroke-linejoin="round"/>
<path d="M176.392 185.76C173.532 190.931 166.354 193.432 152.748 189.317C149.07 188.211 145.521 187.055 142.132 185.89C150.096 187.992 168.976 192.077 176.392 185.76Z" fill="#EF5A6F"/>
<path d="M132.513 40.7423L132.852 43.7313C125.944 54.4819 116.514 57.8495 111.141 57.8495C102.269 55.6376 99.239 47.6569 98.7206 39.0983C98.5873 37.0482 98.5807 34.9918 98.7007 32.9409C99.1181 27.1327 100.12 21.3813 101.691 15.7739C101.691 15.7739 128.336 3.3794 130.18 28.2581C130.18 28.2581 135.892 27.2618 136.958 33.5686C137.786 38.8094 132.513 40.7423 132.513 40.7423Z" fill="#B25E47"/>
<path d="M102.977 32.9708C103.566 32.9708 104.044 32.4935 104.044 31.9047C104.044 31.3159 103.566 30.8386 102.977 30.8386C102.388 30.8386 101.91 31.3159 101.91 31.9047C101.91 32.4935 102.388 32.9708 102.977 32.9708Z" fill="#683F1D"/>
<path d="M110.393 31.6158C110.982 31.6158 111.46 31.1385 111.46 30.5497C111.46 29.9609 110.982 29.4836 110.393 29.4836C109.804 29.4836 109.327 29.9609 109.327 30.5497C109.327 31.1385 109.804 31.6158 110.393 31.6158Z" fill="#683F1D"/>
<path d="M108.769 24.8307C108.888 26.2754 113.852 26.8234 114.131 26.0163C114.56 24.7709 108.509 21.4232 108.769 24.8307Z" fill="#604730"/>
<path d="M99.3087 26.9629C99.3087 27.75 104.711 28.1186 104.512 25.3289C104.383 23.3461 99.4283 24.8108 99.3087 26.9629Z" fill="#604730"/>
<path d="M128.735 36.1192C130.958 32.8313 134.476 33.19 134.845 33.8177" stroke="#934735" stroke-width="0.61" stroke-linecap="round" stroke-linejoin="round"/>
<path d="M129.682 34.9934C132.961 33.0704 134.746 37.3846 130.599 37.3846" stroke="#934735" stroke-width="0.61" stroke-linecap="round" stroke-linejoin="round"/>
<path d="M105.848 28.816C106.745 30.5596 106.675 31.6058 106.077 32.7317C105.479 33.8575 103.675 36.3982 104.622 38.65" stroke="#934735" stroke-width="0.61" stroke-linecap="round" stroke-linejoin="round"/>
<path d="M111.659 39.0385C110.872 41.7386 107.672 43.4324 106.127 43.0837C106.127 43.0837 107.672 47.2783 110.393 46.2022C113.523 44.9767 111.659 39.0385 111.659 39.0385Z" fill="white" stroke="#934735" stroke-width="0.61" stroke-linecap="round" stroke-linejoin="round"/>
<path d="M128.246 39.9651C128.862 40.3884 129.561 40.6765 130.296 40.8105C131.032 40.9444 131.787 40.9212 132.513 40.7423" stroke="#934735" stroke-width="0.61" stroke-linecap="round" stroke-linejoin="round"/>
<path d="M137.925 25.6875C140.996 29.8921 136.39 31.6656 136.39 31.6656C135.92 30.992 135.303 30.4334 134.586 30.0316C134.133 29.7655 133.626 29.6036 133.103 29.5577C132.579 29.5118 132.052 29.5831 131.559 29.7662C131.067 29.9494 130.621 30.24 130.255 30.6168C129.889 30.9936 129.611 31.4471 129.442 31.9446C123.172 32.0741 125.874 27.182 125.874 27.182C120.252 29.4238 120.072 23.6749 122.495 21.0745C118.109 25.9964 112.526 21.0745 113.444 16.6407C111.889 21.483 106.356 21.6224 107.094 17.6371C106.618 18.4653 106.043 19.2316 105.379 19.9187C101.572 23.7347 98.1724 19.6497 99.5978 16.6308C93.896 22.0608 91.4239 15.9831 96.8665 12.7151C92.5603 9.18808 97.644 4.1665 101.123 6.73707C100.335 0.489996 106.775 0.211019 109.606 3.85764C110.722 -3.00717 119.315 0.739081 119.664 3.99712C125.993 -0.426641 130.898 2.84137 130.26 10.025C132.822 6.60755 138.304 8.61019 136.241 17.378C141.454 16.9994 142.361 23.5454 137.925 25.6875Z" fill="#604730"/>
<path d="M134.586 30.0316C134.133 29.7655 133.626 29.6036 133.103 29.5577C132.579 29.5118 132.052 29.5831 131.559 29.7662C131.067 29.9494 130.621 30.24 130.255 30.6168C129.889 30.9936 129.611 31.4471 129.442 31.9446C123.172 32.0741 125.874 27.182 125.874 27.182C120.252 29.4238 120.072 23.6749 122.495 21.0745C118.109 25.9964 112.527 21.0745 113.444 16.6407C111.889 21.483 106.356 21.6224 107.094 17.6371C106.619 18.4653 106.043 19.2316 105.379 19.9187C103.844 15.2658 107.283 9.1283 112.536 11.9479C113.224 8.21166 121.817 5.79054 121.767 15.2558C124.947 10.8121 132.144 12.3365 128.745 20.7955C131.416 18.6832 137.576 22.1505 134.586 30.0316Z" fill="#473526"/>
<path d="M123.053 31.6755C123.81 33.19 122.385 35.4417 119.863 36.7071C117.341 37.9724 114.68 37.7034 113.882 36.2388C113.085 34.7742 114.55 32.4726 117.072 31.2073C119.594 29.9419 122.285 30.1611 123.053 31.6755Z" fill="#A0503D"/>
<path d="M102.03 37.4444C101.641 38.5204 100.325 39.0983 98.7007 39.0684C98.5753 37.0279 98.5753 34.9815 98.7007 32.9409C101.113 33.997 102.588 35.9299 102.03 37.4444Z" fill="#A0503D"/>
</svg>
