<svg width="198" height="196" viewBox="0 0 198 196" fill="none" xmlns="http://www.w3.org/2000/svg">
<path d="M187.836 33.9152V155.808H13.9418V33.9152C13.9405 32.3002 14.2577 30.7008 14.8754 29.2086C15.4931 27.7163 16.3992 26.3604 17.5416 25.2185C18.6841 24.0765 20.0407 23.1709 21.5337 22.5535C23.0266 21.9361 24.6268 21.619 26.2425 21.6203H175.535C178.798 21.6203 181.927 22.9156 184.233 25.2214C186.54 27.5271 187.836 30.6544 187.836 33.9152Z" stroke="#EDEDED" stroke-width="1.64" stroke-linecap="round" stroke-linejoin="round"/>
<path d="M187.836 33.9152V34.4632H13.9418V33.9152C13.9405 32.3002 14.2577 30.7008 14.8754 29.2086C15.4931 27.7163 16.3992 26.3604 17.5416 25.2185C18.6841 24.0765 20.0407 23.1709 21.5337 22.5535C23.0266 21.9361 24.6268 21.619 26.2425 21.6203H175.535C178.798 21.6203 181.927 22.9156 184.233 25.2214C186.54 27.5271 187.836 30.6544 187.836 33.9152Z" stroke="#DDDDDD" stroke-width="1.64" stroke-linecap="round" stroke-linejoin="round"/>
<path d="M164.301 28.0467C164.301 28.4901 164.17 28.9235 163.923 29.2922C163.677 29.6608 163.327 29.9482 162.917 30.1178C162.507 30.2875 162.056 30.3319 161.621 30.2454C161.186 30.1589 160.786 29.9454 160.473 29.6319C160.159 29.3184 159.945 28.9189 159.859 28.4841C159.772 28.0492 159.817 27.5984 159.986 27.1888C160.156 26.7792 160.444 26.4291 160.812 26.1827C161.181 25.9364 161.615 25.8049 162.059 25.8049C162.653 25.8049 163.224 26.0411 163.644 26.4615C164.065 26.8819 164.301 27.4521 164.301 28.0467Z" fill="#EDEDED"/>
<path d="M171.598 28.0467C171.598 28.4901 171.467 28.9235 171.22 29.2922C170.974 29.6608 170.623 29.9482 170.214 30.1178C169.804 30.2875 169.353 30.3319 168.918 30.2454C168.483 30.1589 168.083 29.9454 167.769 29.6319C167.456 29.3184 167.242 28.9189 167.155 28.4841C167.069 28.0492 167.113 27.5984 167.283 27.1888C167.453 26.7792 167.74 26.4291 168.109 26.1827C168.478 25.9364 168.912 25.8049 169.355 25.8049C169.95 25.8049 170.521 26.0411 170.941 26.4615C171.362 26.8819 171.598 27.4521 171.598 28.0467Z" fill="#DDDDDD"/>
<path d="M178.895 28.0467C178.895 28.4901 178.763 28.9235 178.517 29.2922C178.27 29.6608 177.92 29.9482 177.51 30.1178C177.1 30.2875 176.649 30.3319 176.214 30.2454C175.779 30.1589 175.38 29.9454 175.066 29.6319C174.752 29.3184 174.539 28.9189 174.452 28.4841C174.366 28.0492 174.41 27.5984 174.58 27.1888C174.75 26.7792 175.037 26.4291 175.406 26.1827C175.775 25.9364 176.208 25.8049 176.652 25.8049C177.247 25.8049 177.817 26.0411 178.238 26.4615C178.658 26.8819 178.895 27.4521 178.895 28.0467Z" fill="#EDEDED"/>
<path d="M17.6499 86.9107C17.2014 81.8094 39.7194 72.1548 43.4176 79.6075L36.101 86.9107C36.101 86.9107 20.8796 92.9186 17.6499 86.9107Z" fill="#93BEE5"/>
<path d="M28.6847 50.4644C25.3952 40.3017 25.1659 39.0563 27.3489 38.2692C29.532 37.4821 35.0942 49.0596 35.7222 50.4644C37.9214 54.9113 39.6166 59.59 40.776 64.4132C41.7728 68.9167 43.0189 79.2986 43.2282 81.7994C44.0854 92.3507 26.6811 95.549 25.9235 87.3491C25.1659 79.1492 25.0862 76.4889 25.0862 76.4889C25.0862 76.4889 16.1148 77.3458 14.8489 70.6304C14.0585 65.379 13.7548 60.0659 13.9418 54.7587C13.9418 54.7587 0.285405 52.497 0.773844 48.9002C1.26228 45.3034 27.9769 52.5767 27.9769 52.5767L28.6847 50.4644Z" fill="#B25E47"/>
<path d="M13.9418 54.7587C13.9418 54.7587 0.285405 52.497 0.773844 48.9002C1.26228 45.3034 27.9769 52.5767 27.9769 52.5767L28.6847 50.4644C25.3952 40.3017 25.1659 39.0563 27.3489 38.2692C29.532 37.4821 35.0942 49.0596 35.7222 50.4644" stroke="#934735" stroke-width="0.61" stroke-linecap="round" stroke-linejoin="round"/>
<path d="M27.957 52.5767C26.8007 57.0669 26.9984 61.7986 28.5252 66.1768" stroke="#934735" stroke-width="0.61" stroke-linecap="round" stroke-linejoin="round"/>
<path d="M21.5574 44.7952C23.7006 45.9111 25.3852 46.1503 26.0232 43.1015C26.6611 40.0526 23.7006 39.953 22.7038 40.1124C21.1786 40.3615 20.6404 44.307 21.5574 44.7952Z" fill="#683F1D"/>
<path d="M21.9861 43.9982C21.5076 45.6322 21.1587 47.6747 21.1687 47.6149C21.5275 47.7942 23.581 48.5016 23.9 47.7942C24.221 46.5477 24.4476 45.2787 24.5778 43.9982H21.9861Z" fill="#683F1D"/>
<path d="M20.0523 48.6312C18.9258 53.6129 13.1443 81.0721 12.9549 81.9688C12.7655 82.8655 13.0147 87.0103 13.3736 87.1697C13.7324 87.3291 15.7261 84.36 16.4737 82.8556C17.2213 81.3511 23.7006 51.2515 24.1093 49.8467C25.1061 46.4292 20.7899 45.3632 20.0523 48.6312Z" fill="#683F1D"/>
<path d="M14.9585 64.204C12.1575 64.8516 11.36 67.5218 13.4334 69.2953C15.6563 71.1983 21.1288 70.2917 21.4079 67.9104C21.687 65.5291 17.2911 63.666 14.9585 64.204Z" fill="#B25E47" stroke="#934735" stroke-width="0.61" stroke-linecap="round" stroke-linejoin="round"/>
<path d="M14.7293 59.8201C11.8584 59.4016 11.1507 62.2412 13.2041 64.483C15.2576 66.7248 22.0259 67.1831 22.4047 64.5627C22.7835 61.9423 16.4737 60.0792 14.7293 59.8201Z" fill="#B25E47" stroke="#934735" stroke-width="0.61" stroke-linecap="round" stroke-linejoin="round"/>
<path d="M12.1675 54.9181C15.7759 54.0612 23.591 59.3618 23.2819 61.0058C22.9032 63.0682 19.2249 63.387 13.9916 61.1652C9.0873 59.0928 10.3931 55.3366 12.1675 54.9181Z" fill="#B25E47" stroke="#934735" stroke-width="0.61" stroke-linecap="round" stroke-linejoin="round"/>
<mask id="mask0_1_3" style="mask-type:luminance" maskUnits="userSpaceOnUse" x="13" y="21" width="175" height="135">
<path d="M187.836 33.9152V155.808H13.9418V33.9152C13.9405 32.3002 14.2577 30.7008 14.8754 29.2086C15.4931 27.7163 16.3992 26.3604 17.5416 25.2185C18.6841 24.0765 20.0407 23.1709 21.5337 22.5535C23.0266 21.9361 24.6268 21.619 26.2425 21.6203H175.535C178.798 21.6203 181.927 22.9156 184.233 25.2214C186.54 27.5271 187.836 30.6544 187.836 33.9152Z" fill="white"/>
</mask>
<g mask="url(#mask0_1_3)">
<path d="M185.972 94.7021C174.768 94.1541 165.488 104.267 162.617 115.874C162.527 116.193 162.457 116.552 162.387 116.931C162.079 118.718 161.866 120.521 161.75 122.331C160.553 137.654 161.68 168.163 161.75 168.84C161.799 169.089 153.775 168.84 142.76 168.322C138.693 168.133 134.198 167.923 129.532 167.684C105.768 166.519 77.5485 164.944 77.5485 164.944L75.844 145.904C75.844 145.904 72.2854 151.882 60.1342 163.649C47.983 175.416 28.5351 168.84 30.6285 154.084C31.9343 144.818 37.4168 138.033 44.0456 126.695C46.0392 123.178 48.2522 119.232 50.4352 114.639C53.3359 108.531 56.1669 102.683 58.8682 97.4321C60.0544 95.1106 61.2207 92.9087 62.3471 90.8263C66.6135 82.9652 70.4412 77.007 73.5214 74.2272C82.7818 65.8579 102.608 70.6803 107.892 72.374C115.776 74.9356 123.957 76.4759 132.234 76.9572C143.956 77.7742 161.749 82.8257 171.179 86.1036C176.63 87.9284 181.647 90.8515 185.922 94.6921L185.972 94.7021Z" fill="#A7CAF0"/>
<path d="M193.857 112.098C183.6 101.806 168.019 97.3125 152.389 111.241C134.208 127.432 120.252 130.242 99.7975 106.598C85.0047 89.5012 79.8612 85.1372 62.387 90.8263C66.6534 82.9652 70.4811 77.007 73.5613 74.2272C82.8217 65.8579 102.648 70.6803 107.931 72.374C115.816 74.9356 123.997 76.4759 132.274 76.9572C143.996 77.7742 161.789 82.8257 171.219 86.1036C176.67 87.9284 181.687 90.8515 185.962 94.6921C189.999 97.9203 192.392 104.387 193.857 112.098Z" fill="#C3DCF8"/>
<path d="M58.5891 141.52C52.0799 148.604 46.1788 133.231 44.0655 126.695C46.0592 123.178 48.2721 119.232 50.4551 114.639C53.3558 108.531 56.1868 102.683 58.8882 97.4321C63.7028 104.795 57.1936 111.54 56.735 114.878C55.5987 123.785 67.9791 131.348 58.5891 141.52Z" fill="#93BEE5"/>
<path d="M17.6499 86.9107C27.7377 89.0329 43.4176 79.6075 43.4176 79.6075C43.4176 79.6075 52.06 118.156 54.3128 126.705C56.5656 135.253 70.9995 168.74 42.8793 170.115C24.837 170.992 23.6209 136.708 22.5642 125.419C21.5076 114.131 17.6499 86.9107 17.6499 86.9107Z" fill="#A7CAF0"/>
<path d="M24.3386 91.3145C32.1038 91.8625 40.7561 86.6417 40.7561 86.6417" stroke="#83ADDF" stroke-width="0.61" stroke-linecap="round" stroke-linejoin="round"/>
<path d="M43.4176 79.6075C43.4176 79.6075 52.06 118.156 54.3128 126.705C55.5488 131.368 60.4033 143.453 59.9946 153.696" stroke="#83ADDF" stroke-width="0.61" stroke-linecap="round" stroke-linejoin="round"/>
<path d="M99.7975 78.6709C104.782 88.0067 118.179 96.9738 134.287 84.5892C134.287 84.5892 136.022 79.4481 135.842 79.4481C135.663 79.4481 102.08 75.383 102.08 75.383L99.7975 78.6709Z" fill="white"/>
<path d="M113.055 67.0934C108.908 66.1568 102.888 67.203 98.7408 73.5696C94.5941 79.9363 94.0658 85.197 94.305 85.1372C94.5442 85.0774 100.794 81.1518 103.655 81.4009C106.741 81.925 109.791 82.6438 112.786 83.553L113.055 67.0934Z" fill="#FED81D"/>
<path d="M131.755 68.9566C131.755 68.9566 140.926 69.0164 142.162 75.4428C143.398 81.8692 139.999 89.5709 135.842 93.1378C131.686 96.7047 133.978 87.9967 119.076 83.9117L131.755 68.9566Z" fill="#FED81D"/>
<path d="M136.231 76.469C136.231 76.469 131.137 84.2106 119.784 84.3899C108.43 84.5693 106.247 77.7941 106.247 77.7941C107.473 74.7254 108.958 68.1794 109.905 63.5863C110.503 60.6869 110.902 58.6046 110.902 58.6046C110.902 58.6046 112.776 40.4313 132.274 41.5272L132.603 44.5163L136.231 76.469Z" fill="#B25E47"/>
<path d="M109.905 63.7258C110.503 60.8264 110.902 58.7441 110.902 58.7441L121.997 53.5431C121.997 53.5431 123.751 66.2067 109.905 63.7258Z" fill="#914839"/>
<path d="M75.8739 145.904C74.3089 127.97 74.3089 113.503 74.3089 113.503" stroke="#83ADDF" stroke-width="0.61" stroke-linecap="round" stroke-linejoin="round"/>
</g>
<path d="M149.947 189.434C148.996 189.087 148.09 188.628 147.246 188.069C141.564 184.323 141.076 177.02 142.8 168.322C144.136 161.656 146.787 154.174 149.349 146.841C152.28 138.481 155.151 130.321 155.958 123.795C156.078 122.879 156.147 122.002 156.177 121.165C156.325 116.153 157.243 111.193 158.899 106.459C163.584 93.2773 173.851 84.9778 185.962 94.6921C189.949 97.9103 192.382 104.377 193.847 112.088C194.375 114.838 194.784 117.748 195.123 120.717C196.239 130.81 196.389 141.64 196.887 149.74C199.329 188.896 189.949 204.519 149.947 189.434Z" fill="#A7CAF0"/>
<path d="M193.857 112.098C185.035 103.241 172.246 98.6775 158.899 106.459C163.584 93.2773 173.851 84.9778 185.962 94.6921C189.999 97.9203 192.392 104.387 193.857 112.098Z" fill="#C3DCF8"/>
<path d="M161.789 168.84C161.839 169.089 153.815 168.84 142.8 168.322C138.733 168.133 134.237 167.923 129.572 167.684C121.598 164.087 116.614 158.887 120.87 151.434C132.453 131.178 153.765 159.245 154.842 139.159C155.589 125.399 158.929 122.42 161.75 122.331C160.553 137.654 161.68 168.143 161.789 168.84Z" fill="#93BEE5"/>
<path d="M164.511 109.896C162.927 113.866 161.994 118.064 161.749 122.331C160.683 137.664 161.68 168.163 161.749 168.84" stroke="#83ADDF" stroke-width="0.61" stroke-linecap="round" stroke-linejoin="round"/>
<path d="M149.947 189.434C148.996 189.086 148.09 188.628 147.246 188.069C156.407 190.062 170.103 191.806 176.153 186.655C185.673 178.554 179.622 168.172 184.886 162.453C190.149 156.734 197.735 154.891 195.133 120.756C196.249 130.849 196.399 141.68 196.897 149.78C199.329 188.896 189.949 204.519 149.947 189.434Z" fill="#93BEE5"/>
<path d="M127.02 120.737C128.476 114.191 120.262 114.489 120.262 114.489C120.99 108.452 112.995 106.788 111.151 112.666C104.662 110.673 102.608 112.666 101.661 116.084L127.02 120.737Z" fill="#DDDDDD"/>
<path d="M115.946 115.117C117.019 115.117 117.89 114.247 117.89 113.174C117.89 112.101 117.019 111.231 115.946 111.231C114.872 111.231 114.002 112.101 114.002 113.174C114.002 114.247 114.872 115.117 115.946 115.117Z" fill="#F9F9F9" stroke="#DDDDDD" stroke-width="0.82" stroke-linecap="round" stroke-linejoin="round"/>
<path d="M89.3209 111.241L77.1996 176.94L125.336 186.655L138.265 120.866L89.3209 111.241Z" fill="#F9F9F9" stroke="#DDDDDD" stroke-width="0.82" stroke-linecap="round" stroke-linejoin="round"/>
<path d="M104.154 154.772C101.691 161.168 101.552 167.884 102.678 170.135C102.678 170.135 107.274 170.982 111.859 158.538L104.154 154.772Z" fill="#93BEE5"/>
<path d="M110.423 142.437C99.4087 138.661 94.1455 136.369 92.1618 135.831C90.1782 135.293 83.0111 134.695 81.8647 135.831C81.3589 136.375 81.0131 137.048 80.8654 137.776C80.7177 138.504 80.7737 139.258 81.0274 139.956C81.4062 141.48 80.1901 142.586 80.0306 144.131C79.8711 145.675 81.7152 146.123 81.3265 147.658C80.9377 149.192 79.7316 150.856 80.5689 152.54C81.4062 154.224 79.7315 155.967 81.3265 158.03C82.9214 160.092 99.1595 161.079 102.718 160.321L109.696 163.44C109.696 163.44 122.006 150.756 110.423 142.437Z" fill="#B25E47"/>
<path d="M92.122 135.801C90.1283 135.273 82.9712 134.665 81.8249 135.801C81.3191 136.345 80.9733 137.018 80.8255 137.746C80.6778 138.474 80.7339 139.228 80.9875 139.926C81.3663 141.451 80.1502 142.556 79.9907 144.101C79.8312 145.645 81.6754 146.094 81.2866 147.628C80.8978 149.162 79.6917 150.826 80.529 152.51C81.3663 154.194 79.6917 155.937 81.2866 158" stroke="#934735" stroke-width="0.61" stroke-linecap="round" stroke-linejoin="round"/>
<path d="M176.213 186.655C173.352 191.826 166.175 194.326 152.569 190.212C148.891 189.106 145.342 187.95 141.953 186.784C136.331 184.861 131.147 182.888 126.502 181.005C118.401 177.785 110.469 174.153 102.738 170.125C104.776 167.861 106.421 165.271 107.602 162.463C108.345 160.797 108.955 159.075 109.427 157.312C110.697 152.438 111.036 147.367 110.423 142.367C112.278 142.925 114.271 143.49 116.404 144.061C121.478 145.446 127.16 146.891 132.922 148.405C150.186 152.948 168.139 158.159 172.515 164.635C172.914 165.223 173.293 165.831 173.651 166.449C173.791 166.688 173.941 166.937 174.07 167.186C174.11 167.25 174.147 167.317 174.18 167.385C174.339 167.674 174.499 167.983 174.648 168.282C174.921 168.807 175.17 169.335 175.396 169.866C177.898 175.795 178.626 182.211 176.213 186.655Z" fill="#A7CAF0"/>
<path d="M110.423 142.437C130.19 148.415 166.036 155.18 172.475 164.705C173.588 166.36 174.552 168.111 175.356 169.936" stroke="#83ADDF" stroke-width="0.61" stroke-linecap="round" stroke-linejoin="round"/>
<path d="M116.325 144.101C117.551 156.485 111.151 168.372 111.151 168.372" stroke="#83ADDF" stroke-width="0.61" stroke-linecap="round" stroke-linejoin="round"/>
<path d="M176.153 186.655C173.293 191.826 166.116 194.326 152.509 190.212C148.831 189.106 145.282 187.95 141.893 186.784C149.857 188.886 168.737 192.971 176.153 186.655Z" fill="#93BEE5"/>
<path d="M132.274 41.6368L132.613 44.6259C125.705 55.3764 116.275 58.7441 110.902 58.7441C102.03 56.5322 99 48.5515 98.4817 39.9929C98.3484 37.9428 98.3417 35.8864 98.4617 33.8355C98.8791 28.0273 99.881 22.2759 101.452 16.6685C101.452 16.6685 128.097 4.27394 129.941 29.1526C129.941 29.1526 135.653 28.1563 136.72 34.4632C137.547 39.7039 132.274 41.6368 132.274 41.6368Z" fill="#B25E47"/>
<path d="M102.738 33.8654C103.327 33.8654 103.805 33.388 103.805 32.7993C103.805 32.2105 103.327 31.7332 102.738 31.7332C102.149 31.7332 101.671 32.2105 101.671 32.7993C101.671 33.388 102.149 33.8654 102.738 33.8654Z" fill="#683F1D"/>
<path d="M110.154 32.5103C110.743 32.5103 111.221 32.033 111.221 31.4442C111.221 30.8555 110.743 30.3782 110.154 30.3782C109.565 30.3782 109.088 30.8555 109.088 31.4442C109.088 32.033 109.565 32.5103 110.154 32.5103Z" fill="#683F1D"/>
<path d="M108.53 25.7252C108.649 27.1699 113.613 27.7179 113.892 26.9109C114.321 25.6654 108.27 22.3177 108.53 25.7252Z" fill="#604730"/>
<path d="M99.0698 27.8574C99.0698 28.6445 104.473 29.0132 104.273 26.2234C104.144 24.2407 99.1894 25.7053 99.0698 27.8574Z" fill="#604730"/>
<path d="M128.496 37.0138C130.719 33.7259 134.237 34.0846 134.606 34.7123" stroke="#934735" stroke-width="0.61" stroke-linecap="round" stroke-linejoin="round"/>
<path d="M129.443 35.8879C132.722 33.965 134.507 38.2792 130.36 38.2792" stroke="#934735" stroke-width="0.61" stroke-linecap="round" stroke-linejoin="round"/>
<path d="M105.609 29.7106C106.506 31.4542 106.436 32.5004 105.838 33.6262C105.24 34.7521 103.436 37.2928 104.383 39.5445" stroke="#934735" stroke-width="0.61" stroke-linecap="round" stroke-linejoin="round"/>
<path d="M111.42 39.9331C110.633 42.6332 107.433 44.327 105.888 43.9782C105.888 43.9782 107.433 48.1729 110.154 47.0968C113.284 45.8713 111.42 39.9331 111.42 39.9331Z" fill="white" stroke="#934735" stroke-width="0.61" stroke-linecap="round" stroke-linejoin="round"/>
<path d="M128.007 40.8597C128.623 41.283 129.322 41.5711 130.057 41.705C130.793 41.839 131.548 41.8157 132.274 41.6368" stroke="#934735" stroke-width="0.61" stroke-linecap="round" stroke-linejoin="round"/>
<path d="M137.686 26.5821C140.757 30.7867 136.151 32.5601 136.151 32.5601C135.681 31.8865 135.064 31.3279 134.347 30.9261C133.894 30.66 133.387 30.4982 132.864 30.4523C132.34 30.4064 131.813 30.4776 131.32 30.6608C130.828 30.844 130.382 31.1345 130.016 31.5113C129.65 31.8881 129.372 32.3417 129.203 32.8391C122.934 32.9686 125.635 28.0766 125.635 28.0766C120.013 30.3184 119.833 24.5695 122.256 21.969C117.87 26.8909 112.288 21.969 113.205 17.5353C111.65 22.3775 106.117 22.517 106.855 18.5316C106.38 19.3598 105.804 20.1262 105.14 20.8133C101.333 24.6292 97.9334 20.5442 99.3589 17.5253C93.6571 22.9554 91.185 16.8777 96.6276 13.6097C92.3213 10.0826 97.4051 5.06106 100.884 7.63162C100.096 1.38455 106.536 1.10557 109.367 4.75219C110.483 -2.11262 119.076 1.63364 119.425 4.89168C125.755 0.467913 130.659 3.73592 130.021 10.9196C132.583 7.5021 138.065 9.50475 136.002 18.2726C141.215 17.894 142.122 24.4399 137.686 26.5821Z" fill="#604730"/>
<path d="M134.347 30.9261C133.894 30.66 133.387 30.4982 132.864 30.4523C132.34 30.4064 131.813 30.4776 131.32 30.6608C130.828 30.844 130.382 31.1345 130.016 31.5113C129.65 31.8881 129.372 32.3417 129.204 32.8391C122.934 32.9686 125.635 28.0766 125.635 28.0766C120.013 30.3184 119.833 24.5695 122.256 21.969C117.87 26.8909 112.288 21.969 113.205 17.5353C111.65 22.3775 106.117 22.517 106.855 18.5316C106.38 19.3598 105.804 20.1262 105.14 20.8133C103.605 16.1603 107.044 10.0228 112.298 12.8425C112.985 9.10621 121.578 6.6851 121.528 16.1504C124.708 11.7067 131.905 13.2311 128.506 21.69C131.177 19.5778 137.338 23.0451 134.347 30.9261Z" fill="#473526"/>
<path d="M122.814 32.5701C123.571 34.0846 122.146 36.3363 119.624 37.6016C117.102 38.867 114.441 38.598 113.643 37.1334C112.846 35.6687 114.311 33.3672 116.833 32.1018C119.355 30.8365 122.046 31.0557 122.814 32.5701Z" fill="#A0503D"/>
<path d="M101.791 38.3389C101.402 39.415 100.087 39.9929 98.4617 39.963C98.3363 37.9224 98.3363 35.876 98.4617 33.8355C100.874 34.8916 102.349 36.8245 101.791 38.3389Z" fill="#A0503D"/>
</svg>
